PathFileType        4      (X/Y/Z)      C:\Users\u0101727\OneDrive - KU Leuven\reference_data\TRC\gait_23.trc         																																																																																																																																																																																		
DataRate	CameraRate	NumFrames	NumMarkers	Units	OrigDataRate	OrigDataStartFrame	OrigNumFrames																																																																																																																																																																											
100	100	9	59	m	100	360	479																																																																																																																																																																											
Frame#	Time	LASI			RASI			LKNE			LTHI1			LTHI2			LTHI3			LTIB1			LTIB2			LTIB3			foot_l5			foot_l6			foot_l8			foot_l9			RKNE			RTHI3			RANK			RTIB1			RTIB2			RTIB3			Foot_r3			Foot_r4			Foot_r5			Foot_r6			Foot_r7			Foot_r9			RSHO			LSHO			CLAV			hum_l2			rad_l2			LW1			LH			hum_r2			RELB			rad_r2			RW2			RW1			RH			LANK			RTHI2			foot_l7			LW2			Foot_r8			foot_l4			RKNE_med			RANK_med			RPSI			Foot_r10			LANK_med			LPSI			Foot_r2			foot_l1			LELB			Foot_r1			foot_l2			foot_l10			foot_l3			LKNE_med			RTHI1		
		X1	Y1	Z1	X2	Y2	Z2	X3	Y3	Z3	X4	Y4	Z4	X5	Y5	Z5	X6	Y6	Z6	X7	Y7	Z7	X8	Y8	Z8	X9	Y9	Z9	X10	Y10	Z10	X11	Y11	Z11	X12	Y12	Z12	X13	Y13	Z13	X14	Y14	Z14	X15	Y15	Z15	X16	Y16	Z16	X17	Y17	Z17	X18	Y18	Z18	X19	Y19	Z19	X20	Y20	Z20	X21	Y21	Z21	X22	Y22	Z22	X23	Y23	Z23	X24	Y24	Z24	X25	Y25	Z25	X26	Y26	Z26	X27	Y27	Z27	X28	Y28	Z28	X29	Y29	Z29	X30	Y30	Z30	X31	Y31	Z31	X32	Y32	Z32	X33	Y33	Z33	X34	Y34	Z34	X35	Y35	Z35	X36	Y36	Z36	X37	Y37	Z37	X38	Y38	Z38	X39	Y39	Z39	X40	Y40	Z40	X41	Y41	Z41	X42	Y42	Z42	X43	Y43	Z43	X44	Y44	Z44	X45	Y45	Z45	X46	Y46	Z46	X47	Y47	Z47	X48	Y48	Z48	X49	Y49	Z49	X50	Y50	Z50	X51	Y51	Z51	X52	Y52	Z52	X53	Y53	Z53	X54	Y54	Z54	X55	Y55	Z55	X56	Y56	Z56	X57	Y57	Z57	X58	Y58	Z58	X59	Y59	Z59
360	3.6	2.0519	0.89673	-0.17488	2.0476	0.88366	0.083206	2.1756	0.44805	-0.14037	2.1555	0.68492	-0.15243	2.1246	0.66194	-0.21073	2.1648	0.62983	-0.17648	2.1813	0.24858	-0.12876	NaN	NaN	NaN	NaN	NaN	NaN	NaN	NaN	NaN	2.2713	0.014585	-0.076051	2.2626	0.014032	-0.025849	2.2001	0.023758	-0.033095	1.897	0.39075	0.080606	1.9702	0.6392	0.13609	1.5772	0.15036	0.02723	1.755	0.27298	0.075649	1.701	0.32102	0.070857	1.7006	0.26489	0.06949	1.5666	0.12605	0.018836	1.5681	0.085946	0.023793	1.5991	0.023331	0.034769	1.6359	0.017266	-0.0077708	1.6654	0.013167	-0.046346	1.6303	0.067117	-0.046609	1.9628	1.3343	0.13931	1.9463	1.3389	-0.21434	2.0334	1.316	-0.056831	1.9074	1.1841	-0.26232	1.8962	0.91956	-0.30173	1.9313	0.78805	-0.2894	1.9	0.73463	-0.32996	1.9339	1.1834	0.17358	1.9077	1.0349	0.194	1.9955	0.91329	0.24259	2.0137	0.83109	0.26643	2.0694	0.84984	0.23273	2.0718	0.80733	0.27859	NaN	NaN	NaN	NaN	NaN	NaN	2.2967	0.0098728	-0.03529	NaN	NaN	NaN	1.6365	0.02111	-0.060078	NaN	NaN	NaN	NaN	NaN	NaN	1.6162	0.1531	-0.049458	NaN	NaN	NaN	1.5968	0.12844	-0.050161	2.1242	0.066322	-0.042906	NaN	NaN	NaN	1.5239	0.16999	-0.01513	2.0744	0.034914	-0.093468	NaN	NaN	NaN	1.5553	0.1865	-0.01273	2.0697	0.0022897	-0.095311	NaN	NaN	NaN	NaN	NaN	NaN	NaN	NaN	NaN	2.0036	0.68618	0.13308
361	3.61	2.0652	0.8983	-0.1744	2.0591	0.88401	0.083391	2.1843	0.44673	-0.14029	2.1682	0.68524	-0.1521	2.1377	0.66287	-0.21084	2.1772	0.63014	-0.17627	2.1864	0.24712	-0.1283	NaN	NaN	NaN	NaN	NaN	NaN	NaN	NaN	NaN	2.2714	0.014372	-0.075414	2.2624	0.013437	-0.025134	2.1999	0.02322	-0.032679	1.9203	0.38772	0.082017	1.9872	0.6378	0.13637	1.5936	0.15903	0.030508	1.7758	0.27386	0.077456	1.7231	0.32365	0.071948	1.7213	0.26786	0.071502	1.5819	0.13528	0.021352	1.5814	0.095588	0.026277	1.6092	0.030941	0.037048	1.6446	0.022081	-0.0060694	1.6717	0.012139	-0.045259	1.6416	0.073718	-0.044597	1.9743	1.3358	0.13919	1.9592	1.3399	-0.21452	2.0457	1.3172	-0.056591	1.921	1.1849	-0.26254	1.9117	0.92031	-0.30152	1.9491	0.78981	-0.28918	1.9183	0.73564	-0.32976	1.9456	1.1849	0.17333	1.9176	1.0363	0.19278	2.0035	0.91332	0.24223	2.0204	0.83072	0.26594	2.0765	0.8486	0.2329	2.0778	0.80575	0.27858	NaN	NaN	NaN	NaN	NaN	NaN	2.2966	0.0093191	-0.034307	NaN	NaN	NaN	1.6449	0.026332	-0.057566	NaN	NaN	NaN	NaN	NaN	NaN	1.6322	0.1601	-0.047096	NaN	NaN	NaN	1.6117	0.13653	-0.048223	2.1244	0.066605	-0.042607	NaN	NaN	NaN	1.5411	0.18211	-0.011801	2.0746	0.034986	-0.093589	NaN	NaN	NaN	1.5738	0.19678	-0.0093675	2.0696	0.0022173	-0.095389	NaN	NaN	NaN	NaN	NaN	NaN	NaN	NaN	NaN	2.0195	0.68537	0.13303
362	3.62	2.0783	0.89972	-0.1736	2.0702	0.88451	0.083859	2.1922	0.44543	-0.1405	2.1817	0.68507	-0.15194	2.1491	0.66232	-0.21109	2.1882	0.62857	-0.17701	2.1913	0.24629	-0.12784	NaN	NaN	NaN	NaN	NaN	NaN	NaN	NaN	NaN	2.2715	0.014228	-0.075421	2.2626	0.013463	-0.025066	2.1999	0.022952	-0.03261	1.9444	0.38506	0.083332	2.0041	0.63683	0.13686	1.6117	0.16814	0.03263	1.7983	0.27392	0.079159	1.7478	0.32605	0.074678	1.7434	0.26969	0.073829	1.5984	0.14488	0.023646	1.5966	0.10554	0.028837	1.622	0.039659	0.039067	1.6563	0.02778	-0.0027908	1.6833	0.013283	-0.039819	1.6564	0.081099	-0.041245	1.9855	1.3371	0.13913	1.9724	1.341	-0.21477	2.0579	1.3184	-0.056218	1.9348	1.1857	-0.26264	1.9274	0.92123	-0.30144	1.9669	0.79124	-0.28885	1.937	0.73672	-0.32947	1.9567	1.1862	0.17311	1.9278	1.0376	0.19163	2.0113	0.9133	0.24184	2.0265	0.83023	0.2653	2.0833	0.84728	0.2329	2.0834	0.80399	0.27845	NaN	NaN	NaN	NaN	NaN	NaN	2.2967	0.0092509	-0.034379	NaN	NaN	NaN	1.6592	0.032573	-0.052879	NaN	NaN	NaN	NaN	NaN	NaN	1.6495	0.16785	-0.045541	NaN	NaN	NaN	1.6276	0.14532	-0.045735	2.1243	0.066603	-0.04292	NaN	NaN	NaN	1.5597	0.19323	-0.0086563	2.0747	0.035222	-0.093823	NaN	NaN	NaN	1.5929	0.20677	-0.0068751	2.0697	0.0024914	-0.095601	NaN	NaN	NaN	NaN	NaN	NaN	NaN	NaN	NaN	2.0355	0.68537	0.13345
363	3.63	2.0913	0.9009	-0.17272	2.0809	0.88503	0.084615	2.1992	0.44404	-0.14073	2.193	0.68211	-0.15317	2.1589	0.6607	-0.2116	2.1973	0.62547	-0.1782	2.1955	0.24533	-0.12758	NaN	NaN	NaN	NaN	NaN	NaN	NaN	NaN	NaN	2.2716	0.014141	-0.075331	2.2625	0.013192	-0.024878	2.1999	0.022726	-0.032462	1.9687	0.38263	0.084612	2.0209	0.63691	0.13802	1.6306	0.17725	0.034624	1.8217	0.27349	0.080367	1.7726	0.32698	0.078155	1.7672	0.27147	0.076423	1.6164	0.15372	0.02565	1.6135	0.11486	0.031105	1.6371	0.048486	0.043123	1.6716	0.033431	0.0027223	1.6987	0.017606	-0.031519	1.6738	0.087483	-0.037482	1.9961	1.3385	0.13909	1.9856	1.3417	-0.21485	2.07	1.3195	-0.055698	1.9486	1.1864	-0.26282	1.9431	0.92202	-0.30126	1.9848	0.79282	-0.28841	1.956	0.73794	-0.32921	1.9677	1.1875	0.17298	1.9376	1.0389	0.19068	2.019	0.91318	0.2415	2.0327	0.82977	0.26503	2.0901	0.84594	0.23314	2.0889	0.80232	0.27837	NaN	NaN	NaN	NaN	NaN	NaN	2.2968	0.0091328	-0.034254	NaN	NaN	NaN	1.6763	0.037749	-0.047379	NaN	NaN	NaN	NaN	NaN	NaN	1.6682	0.17444	-0.043689	NaN	NaN	NaN	1.6457	0.15274	-0.04375	2.1244	0.06646	-0.043261	NaN	NaN	NaN	1.5794	0.20272	-0.0069669	2.0749	0.035452	-0.093951	NaN	NaN	NaN	1.6128	0.21538	-0.0052689	2.0699	0.0028209	-0.095801	NaN	NaN	NaN	NaN	NaN	NaN	NaN	NaN	NaN	2.0509	0.68628	0.13421
364	3.64	2.1042	0.90201	-0.17158	2.0913	0.88572	0.085567	NaN	NaN	NaN	2.2033	0.67813	-0.15453	2.1674	0.65816	-0.212	2.2058	0.6216	-0.17983	2.1989	0.24431	-0.12742	NaN	NaN	NaN	NaN	NaN	NaN	NaN	NaN	NaN	2.2716	0.014049	-0.075279	2.2626	0.012996	-0.024672	2.1998	0.02236	-0.032338	1.9927	0.38103	0.085783	2.037	0.63769	0.13956	1.6509	0.18501	0.036075	1.8456	0.2733	0.080658	1.7982	0.32798	0.082669	1.791	0.27264	0.078609	1.6366	0.16173	0.027503	1.6331	0.1233	0.033987	1.6558	0.056839	0.048664	1.6895	0.039812	0.0088029	1.7162	0.021155	-0.026106	1.693	0.092906	-0.03359	2.0067	1.3398	0.13936	1.9991	1.3429	-0.2151	2.0819	1.3207	-0.055107	1.9628	1.1871	-0.26303	1.9591	0.9228	-0.30115	2.0028	0.79438	-0.28785	1.9752	0.73921	-0.32885	1.9782	1.1887	0.17278	1.9472	1.0397	0.19015	2.0263	0.91292	0.24142	2.0383	0.82928	0.26477	2.0964	0.84451	0.23344	2.0942	0.80076	0.2784	NaN	NaN	NaN	NaN	NaN	NaN	2.2968	0.0090212	-0.034122	NaN	NaN	NaN	1.6944	0.042088	-0.041992	NaN	NaN	NaN	NaN	NaN	NaN	1.6881	0.18	-0.041296	NaN	NaN	NaN	1.6661	0.15882	-0.041905	2.124	0.065766	-0.043789	NaN	NaN	NaN	1.6003	0.21053	-0.0065609	2.0758	0.035607	-0.094391	NaN	NaN	NaN	1.6341	0.22269	-0.004732	2.07	0.0029908	-0.095832	NaN	NaN	NaN	NaN	NaN	NaN	NaN	NaN	NaN	2.0663	0.68804	0.13525
365	3.65	2.1167	0.90315	-0.17028	2.1013	0.88661	0.086586	NaN	NaN	NaN	NaN	NaN	NaN	2.1747	0.65534	-0.21231	2.2129	0.61753	-0.18141	2.2017	0.24314	-0.1279	NaN	NaN	NaN	NaN	NaN	NaN	NaN	NaN	NaN	2.2717	0.014007	-0.075205	2.2625	0.012805	-0.024608	2.1997	0.022128	-0.032249	2.0178	0.38073	0.087594	2.0529	0.63916	0.14155	1.6732	0.19183	0.037627	1.8699	0.27398	0.081034	1.8234	0.32911	0.086082	1.8152	0.27404	0.079638	1.6586	0.16833	0.029142	1.655	0.13063	0.036771	1.6775	0.064844	0.053904	1.7106	0.045142	0.014811	1.736	0.023934	-0.020571	1.7143	0.097213	-0.029667	2.0166	1.3412	0.13916	2.0126	1.3438	-0.21495	2.0939	1.322	-0.05433	1.9769	1.188	-0.26312	1.9754	0.92377	-0.30111	2.0211	0.79626	-0.28725	1.9947	0.74072	-0.32848	1.9882	1.19	0.17254	1.9572	1.0412	0.18924	2.0335	0.91286	0.24138	2.0446	0.82934	0.26496	2.1027	0.84332	0.23389	2.0992	0.79899	0.27836	NaN	NaN	NaN	NaN	NaN	NaN	2.2969	0.008988	-0.034018	NaN	NaN	NaN	1.7149	0.045634	-0.036356	NaN	NaN	NaN	NaN	NaN	NaN	1.7103	0.18474	-0.040156	NaN	NaN	NaN	1.6878	0.16333	-0.040131	2.1242	0.065789	-0.043853	NaN	NaN	NaN	1.623	0.21659	-0.0058724	2.0759	0.035763	-0.0945	NaN	NaN	NaN	1.6566	0.2283	-0.0043935	2.07	0.0032285	-0.095996	NaN	NaN	NaN	NaN	NaN	NaN	NaN	NaN	NaN	2.0799	0.69004	0.13692
366	3.66	2.1292	0.90422	-0.16882	2.1115	0.88809	0.087823	NaN	NaN	NaN	NaN	NaN	NaN	2.1816	0.65323	-0.21271	NaN	NaN	NaN	2.204	0.24209	-0.12882	NaN	NaN	NaN	NaN	NaN	NaN	NaN	NaN	NaN	2.2716	0.013909	-0.075157	2.2625	0.012773	-0.024407	2.1997	0.021928	-0.032107	2.0428	0.38157	0.08919	2.0675	0.64089	0.14319	1.6964	0.1969	0.039197	1.8947	0.27512	0.081733	1.849	0.33082	0.088193	1.8401	0.27613	0.080312	1.6819	0.17346	0.03114	1.6784	0.13613	0.03962	1.7011	0.071096	0.058984	1.7337	0.049564	0.020475	1.7582	0.026385	-0.01346	1.7372	0.10053	-0.02599	2.0265	1.3427	0.13937	2.0261	1.3448	-0.21497	2.1057	1.3232	-0.053504	1.9909	1.1889	-0.26317	1.9919	0.92501	-0.30085	2.0391	0.79829	-0.28647	2.0144	0.74238	-0.32809	1.9978	1.1914	0.17226	1.9669	1.0423	0.18909	2.0407	0.91299	0.2415	2.0494	0.82882	0.26478	2.1089	0.84226	0.23451	2.1039	0.7975	0.27855	NaN	NaN	NaN	NaN	NaN	NaN	2.2969	0.0089185	-0.033928	NaN	NaN	NaN	1.7378	0.048234	-0.030715	NaN	NaN	NaN	NaN	NaN	NaN	1.7334	0.18845	-0.038283	NaN	NaN	NaN	1.7109	0.16698	-0.038302	2.1252	0.066578	-0.043048	NaN	NaN	NaN	1.6463	0.2211	-0.0048341	2.0758	0.036191	-0.095012	NaN	NaN	NaN	1.6801	0.23246	-0.0035479	2.0701	0.0034617	-0.096105	NaN	NaN	NaN	NaN	NaN	NaN	NaN	NaN	NaN	2.0936	0.69246	0.13851
367	3.67	2.1412	0.90526	-0.16743	2.1212	0.88998	0.08911	NaN	NaN	NaN	NaN	NaN	NaN	2.1887	0.65248	-0.2131	NaN	NaN	NaN	2.2061	0.24106	-0.12978	NaN	NaN	NaN	NaN	NaN	NaN	NaN	NaN	NaN	2.2717	0.013887	-0.075101	2.2626	0.012651	-0.024345	2.1997	0.021695	-0.031981	2.0673	0.38304	0.090495	2.0816	0.64304	0.14511	1.721	0.20042	0.041427	1.92	0.27665	0.083025	1.8746	0.33244	0.089197	1.8654	0.27824	0.081215	1.7063	0.17708	0.033592	1.7034	0.14024	0.042654	1.7258	0.074966	0.0631	1.7587	0.052928	0.025701	1.7827	0.028297	-0.0077219	1.7616	0.103	-0.022529	2.0363	1.3444	0.13938	2.04	1.3463	-0.21487	2.1175	1.3246	-0.052598	2.0052	1.1901	-0.26333	2.0086	0.92624	-0.3007	2.0573	0.80045	-0.28565	2.0342	0.74433	-0.32758	2.0071	1.1928	0.17214	1.9765	1.0438	0.18879	2.0476	0.91326	0.24165	2.0552	0.82923	0.26509	2.1142	0.84128	0.23482	2.1084	0.79647	0.27888	NaN	NaN	NaN	NaN	NaN	NaN	2.2969	0.0088493	-0.033885	NaN	NaN	NaN	1.7628	0.050168	-0.025734	NaN	NaN	NaN	NaN	NaN	NaN	1.7578	0.19148	-0.036395	NaN	NaN	NaN	1.7351	0.16959	-0.036251	2.1254	0.06622	-0.043055	NaN	NaN	NaN	1.6704	0.22391	-0.0031179	2.076	0.036437	-0.094982	NaN	NaN	NaN	1.7044	0.23579	-0.0023538	2.0701	0.0036196	-0.096045	NaN	NaN	NaN	NaN	NaN	NaN	NaN	NaN	NaN	2.1073	0.69517	0.14002
368	3.68	2.153	0.90634	-0.16613	2.131	0.89199	0.090391	NaN	NaN	NaN	NaN	NaN	NaN	2.1964	0.65264	-0.21313	NaN	NaN	NaN	2.2081	0.24021	-0.13032	NaN	NaN	NaN	NaN	NaN	NaN	NaN	NaN	NaN	2.2717	0.013767	-0.075016	2.2627	0.012569	-0.02423	2.1999	0.021532	-0.031779	2.0923	0.38541	0.092213	2.0951	0.64564	0.14685	1.7462	0.20241	0.043383	1.9458	0.27807	0.084336	1.9004	0.33392	0.090152	1.8911	0.27929	0.082638	1.7319	0.17912	0.036207	1.7293	0.1426	0.045521	1.7528	0.078295	0.067455	1.7855	0.055157	0.030187	1.8094	0.029775	-0.0030906	1.7877	0.10488	-0.019355	2.0457	1.346	0.13947	2.0537	1.3478	-0.2147	2.1289	1.326	-0.051699	2.0195	1.1915	-0.26347	2.0256	0.92781	-0.30047	2.0757	0.80293	-0.28467	2.0543	0.74665	-0.32713	2.0163	1.1945	0.17194	1.985	1.0452	0.18779	2.0543	0.91389	0.24168	2.0602	0.82976	0.26548	2.1196	0.8407	0.23539	2.1127	0.79566	0.27915	NaN	NaN	NaN	NaN	NaN	NaN	2.297	0.0088173	-0.033835	NaN	NaN	NaN	1.7895	0.051749	-0.021461	NaN	NaN	NaN	NaN	NaN	NaN	1.7825	0.19258	-0.034453	NaN	NaN	NaN	1.7602	0.17099	-0.034098	2.1258	0.066203	-0.042765	NaN	NaN	NaN	1.695	0.22506	-8.86E-04	2.0758	0.036447	-0.095137	NaN	NaN	NaN	1.729	0.23702	-4.80E-04	2.0699	0.003609	-0.095769	NaN	NaN	NaN	NaN	NaN	NaN	NaN	NaN	NaN	2.1191	0.69817	0.14195
